# xmcd CD database file
#
# Track frame offsets:
#	150
#	21202
#	45552
#	65834
#	91938
#	108864
#	129270
#	155517
#	179444
#	198389
#
# Disc length: 2921 seconds
#
# Revision: 0
# Processed by: cddbd v1.5.2PL0 Copyright (c) Steve Scherf et al.
# Submitted via: CDex 1.51
#
DISCID=800b670a
DTITLE=Pinetop Perkins - Born In The Honey
DYEAR=2007
DGENRE=Blues
TTITLE0=Chicken Shack
TTITLE1=How Long Blues
TTITLE2=Down In Mississippi
TTITLE3=Grinder Man Blues
TTITLE4=Little Bit of Your Love
TTITLE5=Perkin's Boogie
TTITLE6=Ida B
TTITLE7=Kansas City
TTITLE8=Mojo
TTITLE9=Rather Quit Than Hit Her
EXTD=YEAR: 2007
EXTT0=
EXTT1=
EXTT2=
EXTT3=
EXTT4=
EXTT5=
EXTT6=
EXTT7=
EXTT8=
EXTT9=
PLAYORDER=
